<?xml version="1.0" encoding="iso-8859-1"?>
<!-- Generator: Adobe Illustrator 19.0.0, SVG Export Plug-In . SVG Version: 6.00 Build 0)  -->
<svg version="1.1" id="Capa_1" xmlns="http://www.w3.org/2000/svg" xmlns:xlink="http://www.w3.org/1999/xlink" x="0px" y="0px"
	 viewBox="0 0 512 512" style="enable-background:new 0 0 512 512;" xml:space="preserve">
<path style="fill:#F0C419;" d="M294.996,28.972L294.996,28.972c8.077,27.224,41.154,37.897,63.788,20.586l0,0
	c32.124-24.558,76.685,7.601,63.1,45.542l0,0c-9.578,26.739,10.867,54.687,39.424,53.901l0,0
	c40.519-1.112,57.547,50.926,24.099,73.684l0,0c-23.57,16.04-23.57,50.591,0,66.631l0,0c33.439,22.758,16.419,74.796-24.099,73.684
	l0,0c-28.557-0.786-49.002,27.163-39.424,53.901l0,0c13.586,37.941-30.976,70.1-63.1,45.542l0,0
	c-22.643-17.311-55.72-6.63-63.788,20.586l0,0c-11.458,38.63-66.534,38.63-77.992,0l0,0c-8.077-27.224-41.154-37.897-63.788-20.586
	l0,0c-32.124,24.558-76.685-7.601-63.1-45.542l0,0c9.578-26.739-10.867-54.687-39.424-53.901l0,0
	c-40.519,1.112-57.547-50.926-24.099-73.684l0,0c23.57-16.04,23.57-50.591,0-66.631l0,0c-33.439-22.758-16.419-74.796,24.099-73.684
	l0,0c28.557,0.786,49.002-27.162,39.424-53.901l0,0c-13.586-37.941,30.976-70.1,63.1-45.542l0,0
	c22.643,17.311,55.72,6.63,63.788-20.586l0,0C228.462-9.657,283.547-9.657,294.996,28.972z"/>
<path style="fill:#E64C3C;" d="M256.004,441.379c-16.772-25.45-45.286-41.304-77.18-41.304c-11.132,0-21.963,1.969-32.159,5.782
	c0.742-19.994-4.97-39.998-16.711-56.753c-12.359-17.638-30.305-30.199-50.511-35.946c12.588-16.102,19.659-36.149,19.659-57.15
	s-7.062-41.066-19.65-57.159c20.206-5.747,38.153-18.308,50.511-35.946c11.741-16.764,17.452-36.758,16.711-56.761
	c10.196,3.814,21.018,5.782,32.159,5.782c31.885,0,60.398-15.854,77.171-41.304c16.772,25.45,45.286,41.304,77.18,41.304
	c11.132,0,21.963-1.969,32.15-5.782c-0.742,19.994,4.979,39.998,16.711,56.753c12.35,17.638,30.305,30.199,50.503,35.946
	c-12.579,16.102-19.659,36.149-19.659,57.159s7.08,41.057,19.659,57.15c-20.206,5.747-38.153,18.308-50.511,35.946
	c-11.732,16.755-17.452,36.758-16.711,56.753c-10.196-3.814-21.027-5.782-32.15-5.782
	C301.29,400.075,272.777,415.929,256.004,441.379z"/>
<g>
	<path style="fill:#FFFFFF;" d="M203.039,247.172c-24.338,0-44.138-19.8-44.138-44.138s19.8-44.138,44.138-44.138
		s44.138,19.8,44.138,44.138S227.377,247.172,203.039,247.172z M203.039,176.552c-14.601,0-26.483,11.882-26.483,26.483
		c0,14.601,11.882,26.483,26.483,26.483c14.601,0,26.483-11.882,26.483-26.483C229.522,188.434,217.64,176.552,203.039,176.552z"/>
	<path style="fill:#FFFFFF;" d="M308.97,353.103c-24.338,0-44.138-19.8-44.138-44.138s19.8-44.138,44.138-44.138
		c24.338,0,44.138,19.8,44.138,44.138S333.308,353.103,308.97,353.103z M308.97,282.483c-14.601,0-26.483,11.882-26.483,26.483
		s11.882,26.483,26.483,26.483c14.601,0,26.483-11.882,26.483-26.483S323.571,282.483,308.97,282.483z"/>
	<path style="fill:#FFFFFF;" d="M203.03,353.103c-1.545,0-3.116-0.406-4.529-1.262c-4.184-2.507-5.535-7.927-3.028-12.111
		l105.931-176.552c2.507-4.193,7.927-5.544,12.111-3.028c4.184,2.507,5.535,7.927,3.028,12.111L210.613,348.813
		C208.953,351.576,206.031,353.103,203.03,353.103z"/>
</g>
<g>
</g>
<g>
</g>
<g>
</g>
<g>
</g>
<g>
</g>
<g>
</g>
<g>
</g>
<g>
</g>
<g>
</g>
<g>
</g>
<g>
</g>
<g>
</g>
<g>
</g>
<g>
</g>
<g>
</g>
</svg>
